# xmcd CD database file
#
# Track frame offsets:
#	150
#	14272
#	32670
#	54790
#	74657
#	98915
#	120205
#	136282
#	154805
#	173787
#
# Disc length: 2599 seconds
#
# Revision: 0
# Processed by: cddbd v1.5.1PL0 Copyright (c) Steve Scherf et al.
# Submitted via: CDex 1.51
#
DISCID=790a250a
DTITLE=Buddy De Franco - The Complete Verve Recordings of the Buddy De Franco Quartet/Quintet with Sonny Clark
DYEAR=1900
DGENRE=Jazz
TTITLE0=Jack The Fieldstalker
TTITLE1=Cable Car
TTITLE2=I wish I Knew
TTITLE3=If I Should Lose You
TTITLE4=Lover Man
TTITLE5=Tenderly
TTITLE6=Dee Purple
TTITLE7=Monogram
TTITLE8=Yesterdays
TTITLE9=Blues in the Closet
EXTD=
EXTT0=
EXTT1=
EXTT2=
EXTT3=
EXTT4=
EXTT5=
EXTT6=
EXTT7=
EXTT8=
EXTT9=
PLAYORDER=
